<mxfile host="app.diagrams.net" modified="2022-05-04T07:41:01.913Z" agent="5.0 (X11)" etag="kg6tWqCqCY9OdVK09uXa" version="17.5.0" type="github">
  <diagram id="hXTm1oB8rA-mRHJnSZot" name="Page-1">
    <mxGraphModel dx="1185" dy="1710" grid="1" gridSize="10" guides="1" tooltips="1" connect="1" arrows="1" fold="1" page="1" pageScale="1" pageWidth="850" pageHeight="1100" math="0" shadow="0">
      <root>
        <mxCell id="0" />
        <mxCell id="1" parent="0" />
        <mxCell id="MVHdh4CtInkI7NtIAPNV-1" value="" style="whiteSpace=wrap;html=1;aspect=fixed;fillColor=#dae8fc;strokeColor=#6c8ebf;" parent="1" vertex="1">
          <mxGeometry x="70" y="100" width="80" height="80" as="geometry" />
        </mxCell>
        <mxCell id="MVHdh4CtInkI7NtIAPNV-2" value="" style="whiteSpace=wrap;html=1;aspect=fixed;fillColor=#dae8fc;strokeColor=#6c8ebf;" parent="1" vertex="1">
          <mxGeometry x="160" y="100" width="80" height="80" as="geometry" />
        </mxCell>
        <mxCell id="MVHdh4CtInkI7NtIAPNV-147" value="" style="whiteSpace=wrap;html=1;aspect=fixed;fillColor=#0050ef;strokeColor=#001DBC;fontColor=#ffffff;" parent="1" vertex="1">
          <mxGeometry x="250" y="100" width="80" height="80" as="geometry" />
        </mxCell>
        <mxCell id="MVHdh4CtInkI7NtIAPNV-148" value="" style="whiteSpace=wrap;html=1;aspect=fixed;fillColor=#0050ef;strokeColor=#001DBC;fontColor=#ffffff;" parent="1" vertex="1">
          <mxGeometry x="340" y="100" width="80" height="80" as="geometry" />
        </mxCell>
        <mxCell id="MVHdh4CtInkI7NtIAPNV-157" value="" style="whiteSpace=wrap;html=1;aspect=fixed;fillColor=#0050ef;fontColor=#ffffff;strokeColor=#001DBC;" parent="1" vertex="1">
          <mxGeometry x="430" y="100" width="80" height="80" as="geometry" />
        </mxCell>
        <mxCell id="MVHdh4CtInkI7NtIAPNV-158" value="" style="whiteSpace=wrap;html=1;aspect=fixed;fillColor=#0050ef;fontColor=#ffffff;strokeColor=#001DBC;" parent="1" vertex="1">
          <mxGeometry x="520" y="100" width="80" height="80" as="geometry" />
        </mxCell>
        <mxCell id="MVHdh4CtInkI7NtIAPNV-159" value="" style="whiteSpace=wrap;html=1;aspect=fixed;" parent="1" vertex="1">
          <mxGeometry x="610" y="100" width="80" height="80" as="geometry" />
        </mxCell>
        <mxCell id="MVHdh4CtInkI7NtIAPNV-160" value="" style="whiteSpace=wrap;html=1;aspect=fixed;" parent="1" vertex="1">
          <mxGeometry x="700" y="100" width="80" height="80" as="geometry" />
        </mxCell>
        <mxCell id="MVHdh4CtInkI7NtIAPNV-161" value="" style="whiteSpace=wrap;html=1;aspect=fixed;" parent="1" vertex="1">
          <mxGeometry x="70" y="190" width="80" height="80" as="geometry" />
        </mxCell>
        <mxCell id="MVHdh4CtInkI7NtIAPNV-162" value="" style="whiteSpace=wrap;html=1;aspect=fixed;" parent="1" vertex="1">
          <mxGeometry x="160" y="190" width="80" height="80" as="geometry" />
        </mxCell>
        <mxCell id="MVHdh4CtInkI7NtIAPNV-163" value="" style="whiteSpace=wrap;html=1;aspect=fixed;" parent="1" vertex="1">
          <mxGeometry x="250" y="190" width="80" height="80" as="geometry" />
        </mxCell>
        <mxCell id="MVHdh4CtInkI7NtIAPNV-164" value="" style="whiteSpace=wrap;html=1;aspect=fixed;" parent="1" vertex="1">
          <mxGeometry x="340" y="190" width="80" height="80" as="geometry" />
        </mxCell>
        <mxCell id="MVHdh4CtInkI7NtIAPNV-165" value="" style="whiteSpace=wrap;html=1;aspect=fixed;" parent="1" vertex="1">
          <mxGeometry x="430" y="190" width="80" height="80" as="geometry" />
        </mxCell>
        <mxCell id="MVHdh4CtInkI7NtIAPNV-166" value="" style="whiteSpace=wrap;html=1;aspect=fixed;" parent="1" vertex="1">
          <mxGeometry x="520" y="190" width="80" height="80" as="geometry" />
        </mxCell>
        <mxCell id="MVHdh4CtInkI7NtIAPNV-167" value="" style="whiteSpace=wrap;html=1;aspect=fixed;" parent="1" vertex="1">
          <mxGeometry x="610" y="190" width="80" height="80" as="geometry" />
        </mxCell>
        <mxCell id="MVHdh4CtInkI7NtIAPNV-168" value="" style="whiteSpace=wrap;html=1;aspect=fixed;" parent="1" vertex="1">
          <mxGeometry x="700" y="190" width="80" height="80" as="geometry" />
        </mxCell>
        <mxCell id="MVHdh4CtInkI7NtIAPNV-169" value="" style="whiteSpace=wrap;html=1;aspect=fixed;" parent="1" vertex="1">
          <mxGeometry x="70" y="280" width="80" height="80" as="geometry" />
        </mxCell>
        <mxCell id="MVHdh4CtInkI7NtIAPNV-170" value="" style="whiteSpace=wrap;html=1;aspect=fixed;" parent="1" vertex="1">
          <mxGeometry x="160" y="280" width="80" height="80" as="geometry" />
        </mxCell>
        <mxCell id="MVHdh4CtInkI7NtIAPNV-171" value="" style="whiteSpace=wrap;html=1;aspect=fixed;" parent="1" vertex="1">
          <mxGeometry x="250" y="280" width="80" height="80" as="geometry" />
        </mxCell>
        <mxCell id="MVHdh4CtInkI7NtIAPNV-172" value="" style="whiteSpace=wrap;html=1;aspect=fixed;" parent="1" vertex="1">
          <mxGeometry x="340" y="280" width="80" height="80" as="geometry" />
        </mxCell>
        <mxCell id="MVHdh4CtInkI7NtIAPNV-173" value="" style="whiteSpace=wrap;html=1;aspect=fixed;" parent="1" vertex="1">
          <mxGeometry x="430" y="280" width="80" height="80" as="geometry" />
        </mxCell>
        <mxCell id="MVHdh4CtInkI7NtIAPNV-174" value="" style="whiteSpace=wrap;html=1;aspect=fixed;" parent="1" vertex="1">
          <mxGeometry x="520" y="280" width="80" height="80" as="geometry" />
        </mxCell>
        <mxCell id="MVHdh4CtInkI7NtIAPNV-175" value="" style="whiteSpace=wrap;html=1;aspect=fixed;" parent="1" vertex="1">
          <mxGeometry x="610" y="280" width="80" height="80" as="geometry" />
        </mxCell>
        <mxCell id="MVHdh4CtInkI7NtIAPNV-176" value="" style="whiteSpace=wrap;html=1;aspect=fixed;" parent="1" vertex="1">
          <mxGeometry x="700" y="280" width="80" height="80" as="geometry" />
        </mxCell>
        <mxCell id="MVHdh4CtInkI7NtIAPNV-177" value="" style="whiteSpace=wrap;html=1;aspect=fixed;" parent="1" vertex="1">
          <mxGeometry x="70" y="370" width="80" height="80" as="geometry" />
        </mxCell>
        <mxCell id="MVHdh4CtInkI7NtIAPNV-178" value="" style="whiteSpace=wrap;html=1;aspect=fixed;" parent="1" vertex="1">
          <mxGeometry x="160" y="370" width="80" height="80" as="geometry" />
        </mxCell>
        <mxCell id="MVHdh4CtInkI7NtIAPNV-179" value="" style="whiteSpace=wrap;html=1;aspect=fixed;" parent="1" vertex="1">
          <mxGeometry x="250" y="370" width="80" height="80" as="geometry" />
        </mxCell>
        <mxCell id="MVHdh4CtInkI7NtIAPNV-180" value="" style="whiteSpace=wrap;html=1;aspect=fixed;" parent="1" vertex="1">
          <mxGeometry x="340" y="370" width="80" height="80" as="geometry" />
        </mxCell>
        <mxCell id="MVHdh4CtInkI7NtIAPNV-181" value="" style="whiteSpace=wrap;html=1;aspect=fixed;" parent="1" vertex="1">
          <mxGeometry x="430" y="370" width="80" height="80" as="geometry" />
        </mxCell>
        <mxCell id="MVHdh4CtInkI7NtIAPNV-182" value="" style="whiteSpace=wrap;html=1;aspect=fixed;" parent="1" vertex="1">
          <mxGeometry x="520" y="370" width="80" height="80" as="geometry" />
        </mxCell>
        <mxCell id="MVHdh4CtInkI7NtIAPNV-183" value="" style="whiteSpace=wrap;html=1;aspect=fixed;" parent="1" vertex="1">
          <mxGeometry x="610" y="370" width="80" height="80" as="geometry" />
        </mxCell>
        <mxCell id="MVHdh4CtInkI7NtIAPNV-184" value="" style="whiteSpace=wrap;html=1;aspect=fixed;" parent="1" vertex="1">
          <mxGeometry x="700" y="370" width="80" height="80" as="geometry" />
        </mxCell>
        <mxCell id="MVHdh4CtInkI7NtIAPNV-201" value="" style="whiteSpace=wrap;html=1;aspect=fixed;fillColor=#dae8fc;strokeColor=#6c8ebf;" parent="1" vertex="1">
          <mxGeometry x="870" y="100" width="80" height="80" as="geometry" />
        </mxCell>
        <mxCell id="MVHdh4CtInkI7NtIAPNV-202" value="" style="whiteSpace=wrap;html=1;aspect=fixed;fillColor=#dae8fc;strokeColor=#6c8ebf;" parent="1" vertex="1">
          <mxGeometry x="960" y="100" width="80" height="80" as="geometry" />
        </mxCell>
        <mxCell id="MVHdh4CtInkI7NtIAPNV-203" value="" style="whiteSpace=wrap;html=1;aspect=fixed;fillColor=#dae8fc;strokeColor=#6c8ebf;" parent="1" vertex="1">
          <mxGeometry x="1050" y="100" width="80" height="80" as="geometry" />
        </mxCell>
        <mxCell id="MVHdh4CtInkI7NtIAPNV-204" value="" style="whiteSpace=wrap;html=1;aspect=fixed;fillColor=#dae8fc;strokeColor=#6c8ebf;" parent="1" vertex="1">
          <mxGeometry x="1140" y="100" width="80" height="80" as="geometry" />
        </mxCell>
        <mxCell id="MVHdh4CtInkI7NtIAPNV-205" value="" style="whiteSpace=wrap;html=1;aspect=fixed;fillColor=#0050ef;strokeColor=#001DBC;fontColor=#ffffff;" parent="1" vertex="1">
          <mxGeometry x="1230" y="100" width="80" height="80" as="geometry" />
        </mxCell>
        <mxCell id="MVHdh4CtInkI7NtIAPNV-206" value="" style="whiteSpace=wrap;html=1;aspect=fixed;fillColor=#0050ef;strokeColor=#001DBC;fontColor=#ffffff;" parent="1" vertex="1">
          <mxGeometry x="1320" y="100" width="80" height="80" as="geometry" />
        </mxCell>
        <mxCell id="MVHdh4CtInkI7NtIAPNV-207" value="" style="whiteSpace=wrap;html=1;aspect=fixed;fillColor=#0050ef;strokeColor=#001DBC;fontColor=#ffffff;" parent="1" vertex="1">
          <mxGeometry x="1410" y="100" width="80" height="80" as="geometry" />
        </mxCell>
        <mxCell id="MVHdh4CtInkI7NtIAPNV-208" value="" style="whiteSpace=wrap;html=1;aspect=fixed;fillColor=#0050ef;strokeColor=#001DBC;fontColor=#ffffff;" parent="1" vertex="1">
          <mxGeometry x="1500" y="100" width="80" height="80" as="geometry" />
        </mxCell>
        <mxCell id="MVHdh4CtInkI7NtIAPNV-209" value="" style="whiteSpace=wrap;html=1;aspect=fixed;" parent="1" vertex="1">
          <mxGeometry x="870" y="190" width="80" height="80" as="geometry" />
        </mxCell>
        <mxCell id="MVHdh4CtInkI7NtIAPNV-210" value="" style="whiteSpace=wrap;html=1;aspect=fixed;" parent="1" vertex="1">
          <mxGeometry x="960" y="190" width="80" height="80" as="geometry" />
        </mxCell>
        <mxCell id="MVHdh4CtInkI7NtIAPNV-211" value="" style="whiteSpace=wrap;html=1;aspect=fixed;" parent="1" vertex="1">
          <mxGeometry x="1050" y="190" width="80" height="80" as="geometry" />
        </mxCell>
        <mxCell id="MVHdh4CtInkI7NtIAPNV-212" value="" style="whiteSpace=wrap;html=1;aspect=fixed;" parent="1" vertex="1">
          <mxGeometry x="1140" y="190" width="80" height="80" as="geometry" />
        </mxCell>
        <mxCell id="MVHdh4CtInkI7NtIAPNV-213" value="" style="whiteSpace=wrap;html=1;aspect=fixed;" parent="1" vertex="1">
          <mxGeometry x="1230" y="190" width="80" height="80" as="geometry" />
        </mxCell>
        <mxCell id="MVHdh4CtInkI7NtIAPNV-214" value="" style="whiteSpace=wrap;html=1;aspect=fixed;" parent="1" vertex="1">
          <mxGeometry x="1320" y="190" width="80" height="80" as="geometry" />
        </mxCell>
        <mxCell id="MVHdh4CtInkI7NtIAPNV-215" value="" style="whiteSpace=wrap;html=1;aspect=fixed;" parent="1" vertex="1">
          <mxGeometry x="1410" y="190" width="80" height="80" as="geometry" />
        </mxCell>
        <mxCell id="MVHdh4CtInkI7NtIAPNV-216" value="" style="whiteSpace=wrap;html=1;aspect=fixed;" parent="1" vertex="1">
          <mxGeometry x="1500" y="190" width="80" height="80" as="geometry" />
        </mxCell>
        <mxCell id="MVHdh4CtInkI7NtIAPNV-217" value="" style="whiteSpace=wrap;html=1;aspect=fixed;" parent="1" vertex="1">
          <mxGeometry x="870" y="280" width="80" height="80" as="geometry" />
        </mxCell>
        <mxCell id="MVHdh4CtInkI7NtIAPNV-218" value="" style="whiteSpace=wrap;html=1;aspect=fixed;" parent="1" vertex="1">
          <mxGeometry x="960" y="280" width="80" height="80" as="geometry" />
        </mxCell>
        <mxCell id="MVHdh4CtInkI7NtIAPNV-219" value="" style="whiteSpace=wrap;html=1;aspect=fixed;" parent="1" vertex="1">
          <mxGeometry x="1050" y="280" width="80" height="80" as="geometry" />
        </mxCell>
        <mxCell id="MVHdh4CtInkI7NtIAPNV-220" value="" style="whiteSpace=wrap;html=1;aspect=fixed;" parent="1" vertex="1">
          <mxGeometry x="1140" y="280" width="80" height="80" as="geometry" />
        </mxCell>
        <mxCell id="MVHdh4CtInkI7NtIAPNV-221" value="" style="whiteSpace=wrap;html=1;aspect=fixed;" parent="1" vertex="1">
          <mxGeometry x="1230" y="280" width="80" height="80" as="geometry" />
        </mxCell>
        <mxCell id="MVHdh4CtInkI7NtIAPNV-222" value="" style="whiteSpace=wrap;html=1;aspect=fixed;" parent="1" vertex="1">
          <mxGeometry x="1320" y="280" width="80" height="80" as="geometry" />
        </mxCell>
        <mxCell id="MVHdh4CtInkI7NtIAPNV-223" value="" style="whiteSpace=wrap;html=1;aspect=fixed;" parent="1" vertex="1">
          <mxGeometry x="1410" y="280" width="80" height="80" as="geometry" />
        </mxCell>
        <mxCell id="MVHdh4CtInkI7NtIAPNV-224" value="" style="whiteSpace=wrap;html=1;aspect=fixed;" parent="1" vertex="1">
          <mxGeometry x="1500" y="280" width="80" height="80" as="geometry" />
        </mxCell>
        <mxCell id="MVHdh4CtInkI7NtIAPNV-225" value="" style="whiteSpace=wrap;html=1;aspect=fixed;" parent="1" vertex="1">
          <mxGeometry x="870" y="370" width="80" height="80" as="geometry" />
        </mxCell>
        <mxCell id="MVHdh4CtInkI7NtIAPNV-226" value="" style="whiteSpace=wrap;html=1;aspect=fixed;" parent="1" vertex="1">
          <mxGeometry x="960" y="370" width="80" height="80" as="geometry" />
        </mxCell>
        <mxCell id="MVHdh4CtInkI7NtIAPNV-227" value="" style="whiteSpace=wrap;html=1;aspect=fixed;" parent="1" vertex="1">
          <mxGeometry x="1050" y="370" width="80" height="80" as="geometry" />
        </mxCell>
        <mxCell id="MVHdh4CtInkI7NtIAPNV-228" value="" style="whiteSpace=wrap;html=1;aspect=fixed;" parent="1" vertex="1">
          <mxGeometry x="1140" y="370" width="80" height="80" as="geometry" />
        </mxCell>
        <mxCell id="MVHdh4CtInkI7NtIAPNV-229" value="" style="whiteSpace=wrap;html=1;aspect=fixed;" parent="1" vertex="1">
          <mxGeometry x="1230" y="370" width="80" height="80" as="geometry" />
        </mxCell>
        <mxCell id="MVHdh4CtInkI7NtIAPNV-230" value="" style="whiteSpace=wrap;html=1;aspect=fixed;" parent="1" vertex="1">
          <mxGeometry x="1320" y="370" width="80" height="80" as="geometry" />
        </mxCell>
        <mxCell id="MVHdh4CtInkI7NtIAPNV-231" value="" style="whiteSpace=wrap;html=1;aspect=fixed;" parent="1" vertex="1">
          <mxGeometry x="1410" y="370" width="80" height="80" as="geometry" />
        </mxCell>
        <mxCell id="MVHdh4CtInkI7NtIAPNV-232" value="" style="whiteSpace=wrap;html=1;aspect=fixed;" parent="1" vertex="1">
          <mxGeometry x="1500" y="370" width="80" height="80" as="geometry" />
        </mxCell>
        <mxCell id="MVHdh4CtInkI7NtIAPNV-233" value="" style="whiteSpace=wrap;html=1;aspect=fixed;fillColor=#dae8fc;strokeColor=#6c8ebf;" parent="1" vertex="1">
          <mxGeometry x="70" y="580" width="80" height="80" as="geometry" />
        </mxCell>
        <mxCell id="MVHdh4CtInkI7NtIAPNV-234" value="" style="whiteSpace=wrap;html=1;aspect=fixed;fillColor=#dae8fc;strokeColor=#6c8ebf;" parent="1" vertex="1">
          <mxGeometry x="160" y="580" width="80" height="80" as="geometry" />
        </mxCell>
        <mxCell id="MVHdh4CtInkI7NtIAPNV-235" value="" style="whiteSpace=wrap;html=1;aspect=fixed;fillColor=#dae8fc;strokeColor=#6c8ebf;" parent="1" vertex="1">
          <mxGeometry x="250" y="580" width="80" height="80" as="geometry" />
        </mxCell>
        <mxCell id="MVHdh4CtInkI7NtIAPNV-236" value="" style="whiteSpace=wrap;html=1;aspect=fixed;fillColor=#dae8fc;strokeColor=#6c8ebf;" parent="1" vertex="1">
          <mxGeometry x="340" y="580" width="80" height="80" as="geometry" />
        </mxCell>
        <mxCell id="MVHdh4CtInkI7NtIAPNV-237" value="" style="whiteSpace=wrap;html=1;aspect=fixed;fillColor=#dae8fc;strokeColor=#6c8ebf;" parent="1" vertex="1">
          <mxGeometry x="430" y="580" width="80" height="80" as="geometry" />
        </mxCell>
        <mxCell id="MVHdh4CtInkI7NtIAPNV-238" value="" style="whiteSpace=wrap;html=1;aspect=fixed;fillColor=#dae8fc;strokeColor=#6c8ebf;" parent="1" vertex="1">
          <mxGeometry x="520" y="580" width="80" height="80" as="geometry" />
        </mxCell>
        <mxCell id="MVHdh4CtInkI7NtIAPNV-239" value="" style="whiteSpace=wrap;html=1;aspect=fixed;fillColor=#dae8fc;strokeColor=#6c8ebf;" parent="1" vertex="1">
          <mxGeometry x="610" y="580" width="80" height="80" as="geometry" />
        </mxCell>
        <mxCell id="MVHdh4CtInkI7NtIAPNV-240" value="" style="whiteSpace=wrap;html=1;aspect=fixed;fillColor=#dae8fc;strokeColor=#6c8ebf;" parent="1" vertex="1">
          <mxGeometry x="700" y="580" width="80" height="80" as="geometry" />
        </mxCell>
        <mxCell id="MVHdh4CtInkI7NtIAPNV-241" value="" style="whiteSpace=wrap;html=1;aspect=fixed;" parent="1" vertex="1">
          <mxGeometry x="70" y="670" width="80" height="80" as="geometry" />
        </mxCell>
        <mxCell id="MVHdh4CtInkI7NtIAPNV-242" value="" style="whiteSpace=wrap;html=1;aspect=fixed;" parent="1" vertex="1">
          <mxGeometry x="160" y="670" width="80" height="80" as="geometry" />
        </mxCell>
        <mxCell id="MVHdh4CtInkI7NtIAPNV-243" value="" style="whiteSpace=wrap;html=1;aspect=fixed;" parent="1" vertex="1">
          <mxGeometry x="250" y="670" width="80" height="80" as="geometry" />
        </mxCell>
        <mxCell id="MVHdh4CtInkI7NtIAPNV-244" value="" style="whiteSpace=wrap;html=1;aspect=fixed;" parent="1" vertex="1">
          <mxGeometry x="340" y="670" width="80" height="80" as="geometry" />
        </mxCell>
        <mxCell id="MVHdh4CtInkI7NtIAPNV-245" value="" style="whiteSpace=wrap;html=1;aspect=fixed;fillColor=#0050ef;fontColor=#ffffff;strokeColor=#001DBC;" parent="1" vertex="1">
          <mxGeometry x="430" y="670" width="80" height="80" as="geometry" />
        </mxCell>
        <mxCell id="MVHdh4CtInkI7NtIAPNV-246" value="" style="whiteSpace=wrap;html=1;aspect=fixed;fillColor=#0050ef;fontColor=#ffffff;strokeColor=#001DBC;" parent="1" vertex="1">
          <mxGeometry x="520" y="670" width="80" height="80" as="geometry" />
        </mxCell>
        <mxCell id="MVHdh4CtInkI7NtIAPNV-247" value="" style="whiteSpace=wrap;html=1;aspect=fixed;fillColor=#0050ef;fontColor=#ffffff;strokeColor=#001DBC;" parent="1" vertex="1">
          <mxGeometry x="610" y="670" width="80" height="80" as="geometry" />
        </mxCell>
        <mxCell id="MVHdh4CtInkI7NtIAPNV-248" value="" style="whiteSpace=wrap;html=1;aspect=fixed;fillColor=#0050ef;fontColor=#ffffff;strokeColor=#001DBC;" parent="1" vertex="1">
          <mxGeometry x="700" y="670" width="80" height="80" as="geometry" />
        </mxCell>
        <mxCell id="MVHdh4CtInkI7NtIAPNV-249" value="" style="whiteSpace=wrap;html=1;aspect=fixed;" parent="1" vertex="1">
          <mxGeometry x="70" y="760" width="80" height="80" as="geometry" />
        </mxCell>
        <mxCell id="MVHdh4CtInkI7NtIAPNV-250" value="" style="whiteSpace=wrap;html=1;aspect=fixed;" parent="1" vertex="1">
          <mxGeometry x="160" y="760" width="80" height="80" as="geometry" />
        </mxCell>
        <mxCell id="MVHdh4CtInkI7NtIAPNV-251" value="" style="whiteSpace=wrap;html=1;aspect=fixed;" parent="1" vertex="1">
          <mxGeometry x="250" y="760" width="80" height="80" as="geometry" />
        </mxCell>
        <mxCell id="MVHdh4CtInkI7NtIAPNV-252" value="" style="whiteSpace=wrap;html=1;aspect=fixed;" parent="1" vertex="1">
          <mxGeometry x="340" y="760" width="80" height="80" as="geometry" />
        </mxCell>
        <mxCell id="MVHdh4CtInkI7NtIAPNV-253" value="" style="whiteSpace=wrap;html=1;aspect=fixed;" parent="1" vertex="1">
          <mxGeometry x="430" y="760" width="80" height="80" as="geometry" />
        </mxCell>
        <mxCell id="MVHdh4CtInkI7NtIAPNV-254" value="" style="whiteSpace=wrap;html=1;aspect=fixed;" parent="1" vertex="1">
          <mxGeometry x="520" y="760" width="80" height="80" as="geometry" />
        </mxCell>
        <mxCell id="MVHdh4CtInkI7NtIAPNV-255" value="" style="whiteSpace=wrap;html=1;aspect=fixed;" parent="1" vertex="1">
          <mxGeometry x="610" y="760" width="80" height="80" as="geometry" />
        </mxCell>
        <mxCell id="MVHdh4CtInkI7NtIAPNV-256" value="" style="whiteSpace=wrap;html=1;aspect=fixed;" parent="1" vertex="1">
          <mxGeometry x="700" y="760" width="80" height="80" as="geometry" />
        </mxCell>
        <mxCell id="MVHdh4CtInkI7NtIAPNV-257" value="" style="whiteSpace=wrap;html=1;aspect=fixed;" parent="1" vertex="1">
          <mxGeometry x="70" y="850" width="80" height="80" as="geometry" />
        </mxCell>
        <mxCell id="MVHdh4CtInkI7NtIAPNV-258" value="" style="whiteSpace=wrap;html=1;aspect=fixed;" parent="1" vertex="1">
          <mxGeometry x="160" y="850" width="80" height="80" as="geometry" />
        </mxCell>
        <mxCell id="MVHdh4CtInkI7NtIAPNV-259" value="" style="whiteSpace=wrap;html=1;aspect=fixed;" parent="1" vertex="1">
          <mxGeometry x="250" y="850" width="80" height="80" as="geometry" />
        </mxCell>
        <mxCell id="MVHdh4CtInkI7NtIAPNV-260" value="" style="whiteSpace=wrap;html=1;aspect=fixed;" parent="1" vertex="1">
          <mxGeometry x="340" y="850" width="80" height="80" as="geometry" />
        </mxCell>
        <mxCell id="MVHdh4CtInkI7NtIAPNV-261" value="" style="whiteSpace=wrap;html=1;aspect=fixed;" parent="1" vertex="1">
          <mxGeometry x="430" y="850" width="80" height="80" as="geometry" />
        </mxCell>
        <mxCell id="MVHdh4CtInkI7NtIAPNV-262" value="" style="whiteSpace=wrap;html=1;aspect=fixed;" parent="1" vertex="1">
          <mxGeometry x="520" y="850" width="80" height="80" as="geometry" />
        </mxCell>
        <mxCell id="MVHdh4CtInkI7NtIAPNV-263" value="" style="whiteSpace=wrap;html=1;aspect=fixed;" parent="1" vertex="1">
          <mxGeometry x="610" y="850" width="80" height="80" as="geometry" />
        </mxCell>
        <mxCell id="MVHdh4CtInkI7NtIAPNV-264" value="" style="whiteSpace=wrap;html=1;aspect=fixed;" parent="1" vertex="1">
          <mxGeometry x="700" y="850" width="80" height="80" as="geometry" />
        </mxCell>
        <mxCell id="MVHdh4CtInkI7NtIAPNV-265" value="" style="whiteSpace=wrap;html=1;aspect=fixed;fillColor=#dae8fc;strokeColor=#6c8ebf;" parent="1" vertex="1">
          <mxGeometry x="870" y="580" width="80" height="80" as="geometry" />
        </mxCell>
        <mxCell id="MVHdh4CtInkI7NtIAPNV-266" value="" style="whiteSpace=wrap;html=1;aspect=fixed;fillColor=#dae8fc;strokeColor=#6c8ebf;" parent="1" vertex="1">
          <mxGeometry x="960" y="580" width="80" height="80" as="geometry" />
        </mxCell>
        <mxCell id="MVHdh4CtInkI7NtIAPNV-267" value="" style="whiteSpace=wrap;html=1;aspect=fixed;fillColor=#dae8fc;strokeColor=#6c8ebf;" parent="1" vertex="1">
          <mxGeometry x="1050" y="580" width="80" height="80" as="geometry" />
        </mxCell>
        <mxCell id="MVHdh4CtInkI7NtIAPNV-268" value="" style="whiteSpace=wrap;html=1;aspect=fixed;fillColor=#dae8fc;strokeColor=#6c8ebf;" parent="1" vertex="1">
          <mxGeometry x="1140" y="580" width="80" height="80" as="geometry" />
        </mxCell>
        <mxCell id="MVHdh4CtInkI7NtIAPNV-269" value="" style="whiteSpace=wrap;html=1;aspect=fixed;fillColor=#dae8fc;strokeColor=#6c8ebf;" parent="1" vertex="1">
          <mxGeometry x="1230" y="580" width="80" height="80" as="geometry" />
        </mxCell>
        <mxCell id="MVHdh4CtInkI7NtIAPNV-270" value="" style="whiteSpace=wrap;html=1;aspect=fixed;fillColor=#dae8fc;strokeColor=#6c8ebf;" parent="1" vertex="1">
          <mxGeometry x="1320" y="580" width="80" height="80" as="geometry" />
        </mxCell>
        <mxCell id="MVHdh4CtInkI7NtIAPNV-271" value="" style="whiteSpace=wrap;html=1;aspect=fixed;fillColor=#dae8fc;strokeColor=#6c8ebf;" parent="1" vertex="1">
          <mxGeometry x="1410" y="580" width="80" height="80" as="geometry" />
        </mxCell>
        <mxCell id="MVHdh4CtInkI7NtIAPNV-272" value="" style="whiteSpace=wrap;html=1;aspect=fixed;fillColor=#dae8fc;strokeColor=#6c8ebf;" parent="1" vertex="1">
          <mxGeometry x="1500" y="580" width="80" height="80" as="geometry" />
        </mxCell>
        <mxCell id="MVHdh4CtInkI7NtIAPNV-273" value="" style="whiteSpace=wrap;html=1;aspect=fixed;" parent="1" vertex="1">
          <mxGeometry x="870" y="670" width="80" height="80" as="geometry" />
        </mxCell>
        <mxCell id="MVHdh4CtInkI7NtIAPNV-274" value="" style="whiteSpace=wrap;html=1;aspect=fixed;" parent="1" vertex="1">
          <mxGeometry x="960" y="670" width="80" height="80" as="geometry" />
        </mxCell>
        <mxCell id="MVHdh4CtInkI7NtIAPNV-275" value="" style="whiteSpace=wrap;html=1;aspect=fixed;fillColor=#0050ef;fontColor=#ffffff;strokeColor=#001DBC;" parent="1" vertex="1">
          <mxGeometry x="1050" y="670" width="80" height="80" as="geometry" />
        </mxCell>
        <mxCell id="MVHdh4CtInkI7NtIAPNV-276" value="" style="whiteSpace=wrap;html=1;aspect=fixed;fillColor=#0050ef;fontColor=#ffffff;strokeColor=#001DBC;" parent="1" vertex="1">
          <mxGeometry x="1140" y="670" width="80" height="80" as="geometry" />
        </mxCell>
        <mxCell id="MVHdh4CtInkI7NtIAPNV-277" value="" style="whiteSpace=wrap;html=1;aspect=fixed;fillColor=#0050ef;fontColor=#ffffff;strokeColor=#001DBC;" parent="1" vertex="1">
          <mxGeometry x="1230" y="670" width="80" height="80" as="geometry" />
        </mxCell>
        <mxCell id="MVHdh4CtInkI7NtIAPNV-278" value="" style="whiteSpace=wrap;html=1;aspect=fixed;fillColor=#0050ef;fontColor=#ffffff;strokeColor=#001DBC;" parent="1" vertex="1">
          <mxGeometry x="1320" y="670" width="80" height="80" as="geometry" />
        </mxCell>
        <mxCell id="MVHdh4CtInkI7NtIAPNV-279" value="" style="whiteSpace=wrap;html=1;aspect=fixed;fillColor=#dae8fc;strokeColor=#6c8ebf;" parent="1" vertex="1">
          <mxGeometry x="1410" y="670" width="80" height="80" as="geometry" />
        </mxCell>
        <mxCell id="MVHdh4CtInkI7NtIAPNV-280" value="" style="whiteSpace=wrap;html=1;aspect=fixed;fillColor=#dae8fc;strokeColor=#6c8ebf;" parent="1" vertex="1">
          <mxGeometry x="1500" y="670" width="80" height="80" as="geometry" />
        </mxCell>
        <mxCell id="MVHdh4CtInkI7NtIAPNV-281" value="" style="whiteSpace=wrap;html=1;aspect=fixed;" parent="1" vertex="1">
          <mxGeometry x="870" y="760" width="80" height="80" as="geometry" />
        </mxCell>
        <mxCell id="MVHdh4CtInkI7NtIAPNV-282" value="" style="whiteSpace=wrap;html=1;aspect=fixed;" parent="1" vertex="1">
          <mxGeometry x="960" y="760" width="80" height="80" as="geometry" />
        </mxCell>
        <mxCell id="MVHdh4CtInkI7NtIAPNV-283" value="" style="whiteSpace=wrap;html=1;aspect=fixed;" parent="1" vertex="1">
          <mxGeometry x="1050" y="760" width="80" height="80" as="geometry" />
        </mxCell>
        <mxCell id="MVHdh4CtInkI7NtIAPNV-284" value="" style="whiteSpace=wrap;html=1;aspect=fixed;" parent="1" vertex="1">
          <mxGeometry x="1140" y="760" width="80" height="80" as="geometry" />
        </mxCell>
        <mxCell id="MVHdh4CtInkI7NtIAPNV-285" value="" style="whiteSpace=wrap;html=1;aspect=fixed;" parent="1" vertex="1">
          <mxGeometry x="1230" y="760" width="80" height="80" as="geometry" />
        </mxCell>
        <mxCell id="MVHdh4CtInkI7NtIAPNV-286" value="" style="whiteSpace=wrap;html=1;aspect=fixed;" parent="1" vertex="1">
          <mxGeometry x="1320" y="760" width="80" height="80" as="geometry" />
        </mxCell>
        <mxCell id="MVHdh4CtInkI7NtIAPNV-287" value="" style="whiteSpace=wrap;html=1;aspect=fixed;" parent="1" vertex="1">
          <mxGeometry x="1410" y="760" width="80" height="80" as="geometry" />
        </mxCell>
        <mxCell id="MVHdh4CtInkI7NtIAPNV-288" value="" style="whiteSpace=wrap;html=1;aspect=fixed;" parent="1" vertex="1">
          <mxGeometry x="1500" y="760" width="80" height="80" as="geometry" />
        </mxCell>
        <mxCell id="MVHdh4CtInkI7NtIAPNV-289" value="" style="whiteSpace=wrap;html=1;aspect=fixed;" parent="1" vertex="1">
          <mxGeometry x="870" y="850" width="80" height="80" as="geometry" />
        </mxCell>
        <mxCell id="MVHdh4CtInkI7NtIAPNV-290" value="" style="whiteSpace=wrap;html=1;aspect=fixed;" parent="1" vertex="1">
          <mxGeometry x="960" y="850" width="80" height="80" as="geometry" />
        </mxCell>
        <mxCell id="MVHdh4CtInkI7NtIAPNV-291" value="" style="whiteSpace=wrap;html=1;aspect=fixed;" parent="1" vertex="1">
          <mxGeometry x="1050" y="850" width="80" height="80" as="geometry" />
        </mxCell>
        <mxCell id="MVHdh4CtInkI7NtIAPNV-292" value="" style="whiteSpace=wrap;html=1;aspect=fixed;" parent="1" vertex="1">
          <mxGeometry x="1140" y="850" width="80" height="80" as="geometry" />
        </mxCell>
        <mxCell id="MVHdh4CtInkI7NtIAPNV-293" value="" style="whiteSpace=wrap;html=1;aspect=fixed;" parent="1" vertex="1">
          <mxGeometry x="1230" y="850" width="80" height="80" as="geometry" />
        </mxCell>
        <mxCell id="MVHdh4CtInkI7NtIAPNV-294" value="" style="whiteSpace=wrap;html=1;aspect=fixed;" parent="1" vertex="1">
          <mxGeometry x="1320" y="850" width="80" height="80" as="geometry" />
        </mxCell>
        <mxCell id="MVHdh4CtInkI7NtIAPNV-295" value="" style="whiteSpace=wrap;html=1;aspect=fixed;" parent="1" vertex="1">
          <mxGeometry x="1410" y="850" width="80" height="80" as="geometry" />
        </mxCell>
        <mxCell id="MVHdh4CtInkI7NtIAPNV-296" value="" style="whiteSpace=wrap;html=1;aspect=fixed;" parent="1" vertex="1">
          <mxGeometry x="1500" y="850" width="80" height="80" as="geometry" />
        </mxCell>
        <mxCell id="MVHdh4CtInkI7NtIAPNV-297" value="(c)" style="text;html=1;strokeColor=none;fillColor=none;align=center;verticalAlign=middle;whiteSpace=wrap;rounded=0;fontSize=30;fontStyle=1" parent="1" vertex="1">
          <mxGeometry x="383" y="470" width="85" height="60" as="geometry" />
        </mxCell>
        <mxCell id="MVHdh4CtInkI7NtIAPNV-298" value="(d)" style="text;html=1;strokeColor=none;fillColor=none;align=center;verticalAlign=middle;whiteSpace=wrap;rounded=0;fontSize=30;fontStyle=1" parent="1" vertex="1">
          <mxGeometry x="1180" y="470" width="85" height="60" as="geometry" />
        </mxCell>
        <mxCell id="MVHdh4CtInkI7NtIAPNV-299" value="(a)" style="text;html=1;strokeColor=none;fillColor=none;align=center;verticalAlign=middle;whiteSpace=wrap;rounded=0;fontSize=30;fontStyle=1" parent="1" vertex="1">
          <mxGeometry x="383" y="-10" width="85" height="60" as="geometry" />
        </mxCell>
        <mxCell id="MVHdh4CtInkI7NtIAPNV-300" value="(b)" style="text;html=1;strokeColor=none;fillColor=none;align=center;verticalAlign=middle;whiteSpace=wrap;rounded=0;fontSize=30;fontStyle=1" parent="1" vertex="1">
          <mxGeometry x="1190" y="-10" width="85" height="60" as="geometry" />
        </mxCell>
        <mxCell id="1X1gxPRv3vIsNMlWezfQ-1" value="" style="endArrow=classic;html=1;rounded=0;strokeWidth=3;" parent="1" edge="1">
          <mxGeometry width="50" height="50" relative="1" as="geometry">
            <mxPoint x="50" y="100" as="sourcePoint" />
            <mxPoint x="50" y="450" as="targetPoint" />
          </mxGeometry>
        </mxCell>
        <mxCell id="1X1gxPRv3vIsNMlWezfQ-2" value="Track Direction" style="edgeLabel;html=1;align=center;verticalAlign=middle;resizable=0;points=[];rotation=-90;fontSize=28;" parent="1X1gxPRv3vIsNMlWezfQ-1" vertex="1" connectable="0">
          <mxGeometry x="-0.0631" y="-3" relative="1" as="geometry">
            <mxPoint x="-17" as="offset" />
          </mxGeometry>
        </mxCell>
        <mxCell id="1X1gxPRv3vIsNMlWezfQ-3" value="" style="endArrow=classic;html=1;rounded=0;strokeWidth=3;" parent="1" edge="1">
          <mxGeometry width="50" height="50" relative="1" as="geometry">
            <mxPoint x="848" y="100" as="sourcePoint" />
            <mxPoint x="848" y="450" as="targetPoint" />
          </mxGeometry>
        </mxCell>
        <mxCell id="1X1gxPRv3vIsNMlWezfQ-4" value="Track Direction" style="edgeLabel;html=1;align=center;verticalAlign=middle;resizable=0;points=[];rotation=-90;fontSize=28;" parent="1X1gxPRv3vIsNMlWezfQ-3" vertex="1" connectable="0">
          <mxGeometry x="-0.0631" y="-3" relative="1" as="geometry">
            <mxPoint x="-17" as="offset" />
          </mxGeometry>
        </mxCell>
        <mxCell id="1X1gxPRv3vIsNMlWezfQ-5" value="" style="endArrow=classic;html=1;rounded=0;strokeWidth=3;" parent="1" edge="1">
          <mxGeometry width="50" height="50" relative="1" as="geometry">
            <mxPoint x="849" y="580" as="sourcePoint" />
            <mxPoint x="849" y="930" as="targetPoint" />
          </mxGeometry>
        </mxCell>
        <mxCell id="1X1gxPRv3vIsNMlWezfQ-6" value="Track Direction" style="edgeLabel;html=1;align=center;verticalAlign=middle;resizable=0;points=[];rotation=-90;fontSize=28;" parent="1X1gxPRv3vIsNMlWezfQ-5" vertex="1" connectable="0">
          <mxGeometry x="-0.0631" y="-3" relative="1" as="geometry">
            <mxPoint x="-17" as="offset" />
          </mxGeometry>
        </mxCell>
        <mxCell id="1X1gxPRv3vIsNMlWezfQ-7" value="" style="endArrow=classic;html=1;rounded=0;strokeWidth=3;" parent="1" edge="1">
          <mxGeometry width="50" height="50" relative="1" as="geometry">
            <mxPoint x="50" y="580" as="sourcePoint" />
            <mxPoint x="50" y="930" as="targetPoint" />
          </mxGeometry>
        </mxCell>
        <mxCell id="1X1gxPRv3vIsNMlWezfQ-8" value="Track Direction" style="edgeLabel;html=1;align=center;verticalAlign=middle;resizable=0;points=[];rotation=-90;fontSize=28;" parent="1X1gxPRv3vIsNMlWezfQ-7" vertex="1" connectable="0">
          <mxGeometry x="-0.0631" y="-3" relative="1" as="geometry">
            <mxPoint x="-17" as="offset" />
          </mxGeometry>
        </mxCell>
        <mxCell id="1X1gxPRv3vIsNMlWezfQ-9" value="" style="endArrow=classic;html=1;rounded=0;fontSize=28;strokeWidth=3;" parent="1" edge="1">
          <mxGeometry width="50" height="50" relative="1" as="geometry">
            <mxPoint x="70" y="80" as="sourcePoint" />
            <mxPoint x="780" y="80" as="targetPoint" />
          </mxGeometry>
        </mxCell>
        <mxCell id="1X1gxPRv3vIsNMlWezfQ-10" value="Swath" style="edgeLabel;html=1;align=center;verticalAlign=middle;resizable=0;points=[];fontSize=28;" parent="1X1gxPRv3vIsNMlWezfQ-9" vertex="1" connectable="0">
          <mxGeometry x="0.1855" y="-3" relative="1" as="geometry">
            <mxPoint x="-59" y="-23" as="offset" />
          </mxGeometry>
        </mxCell>
        <mxCell id="1X1gxPRv3vIsNMlWezfQ-13" value="" style="endArrow=classic;html=1;rounded=0;fontSize=28;strokeWidth=3;" parent="1" edge="1">
          <mxGeometry width="50" height="50" relative="1" as="geometry">
            <mxPoint x="870" y="80" as="sourcePoint" />
            <mxPoint x="1580" y="80" as="targetPoint" />
          </mxGeometry>
        </mxCell>
        <mxCell id="1X1gxPRv3vIsNMlWezfQ-14" value="Swath" style="edgeLabel;html=1;align=center;verticalAlign=middle;resizable=0;points=[];fontSize=28;" parent="1X1gxPRv3vIsNMlWezfQ-13" vertex="1" connectable="0">
          <mxGeometry x="0.1855" y="-3" relative="1" as="geometry">
            <mxPoint x="-59" y="-23" as="offset" />
          </mxGeometry>
        </mxCell>
        <mxCell id="1X1gxPRv3vIsNMlWezfQ-15" value="" style="endArrow=classic;html=1;rounded=0;fontSize=28;strokeWidth=3;" parent="1" edge="1">
          <mxGeometry width="50" height="50" relative="1" as="geometry">
            <mxPoint x="70" y="560" as="sourcePoint" />
            <mxPoint x="780" y="560" as="targetPoint" />
          </mxGeometry>
        </mxCell>
        <mxCell id="1X1gxPRv3vIsNMlWezfQ-16" value="Swath" style="edgeLabel;html=1;align=center;verticalAlign=middle;resizable=0;points=[];fontSize=28;" parent="1X1gxPRv3vIsNMlWezfQ-15" vertex="1" connectable="0">
          <mxGeometry x="0.1855" y="-3" relative="1" as="geometry">
            <mxPoint x="-59" y="-23" as="offset" />
          </mxGeometry>
        </mxCell>
        <mxCell id="1X1gxPRv3vIsNMlWezfQ-17" value="" style="endArrow=classic;html=1;rounded=0;fontSize=28;strokeWidth=3;" parent="1" edge="1">
          <mxGeometry width="50" height="50" relative="1" as="geometry">
            <mxPoint x="870" y="560" as="sourcePoint" />
            <mxPoint x="1580" y="560" as="targetPoint" />
          </mxGeometry>
        </mxCell>
        <mxCell id="1X1gxPRv3vIsNMlWezfQ-18" value="Swath" style="edgeLabel;html=1;align=center;verticalAlign=middle;resizable=0;points=[];fontSize=28;" parent="1X1gxPRv3vIsNMlWezfQ-17" vertex="1" connectable="0">
          <mxGeometry x="0.1855" y="-3" relative="1" as="geometry">
            <mxPoint x="-71" y="-23" as="offset" />
          </mxGeometry>
        </mxCell>
      </root>
    </mxGraphModel>
  </diagram>
</mxfile>
